Mesh.CharacteristicLengthMax = 5.0;
Mesh.CharacteristicLengthMin = 0.0;
Mesh.Algorithm3D = 1;
General.Verbosity = 2;
Point(1) = {0.000000000000, 0.000000000000, 0.000000000000};
Point(2) = {0.000000000000, 0.000000000000, 110.037667410714};
Point(3) = {14.290606157236, 0.000000000000, 15.751436546782};
Point(4) = {7.145303078618, 12.376027967644, 15.751436546782};
Point(5) = {-7.145303078618, 12.376027967644, 15.751436546782};
Point(6) = {-14.290606157236, 0.000000000000, 15.751436546782};
Point(7) = {-7.145303078618, -12.376027967644, 15.751436546782};
Point(8) = {7.145303078618, -12.376027967644, 15.751436546782};
Point(9) = {10.717954617927, 0.000000000000, 93.960735483824};
Point(10) = {5.358977308963, 9.282020975733, 93.960735483824};
Point(11) = {-5.358977308963, 9.282020975733, 93.960735483824};
Point(12) = {-10.717954617927, 0.000000000000, 93.960735483824};
Point(13) = {-5.358977308963, -9.282020975733, 93.960735483824};
Point(14) = {5.358977308963, -9.282020975733, 93.960735483824};
Line(1) = {1, 3};
Line(2) = {3, 4};
Line(3) = {4, 1};
Line Loop(1001) = {1, 2, 3};
Plane Surface(1) = {1001};
Line(4) = {2, 10};
Line(5) = {10, 9};
Line(6) = {9, 2};
Line Loop(1002) = {4, 5, 6};
Plane Surface(2) = {1002};
Line(7) = {4, 10};
Line(8) = {9, 3};
Line Loop(1003) = {2, 7, 5, 8};
Plane Surface(3) = {1003};
Line(9) = {4, 5};
Line(10) = {5, 1};
Line Loop(1004) = {-3, 9, 10};
Plane Surface(4) = {1004};
Line(11) = {2, 11};
Line(12) = {11, 10};
Line Loop(1005) = {11, 12, -4};
Plane Surface(5) = {1005};
Line(13) = {5, 11};
Line Loop(1006) = {9, 13, 12, -7};
Plane Surface(6) = {1006};
Line(14) = {5, 6};
Line(15) = {6, 1};
Line Loop(1007) = {-10, 14, 15};
Plane Surface(7) = {1007};
Line(16) = {2, 12};
Line(17) = {12, 11};
Line Loop(1008) = {16, 17, -11};
Plane Surface(8) = {1008};
Line(18) = {6, 12};
Line Loop(1009) = {14, 18, 17, -13};
Plane Surface(9) = {1009};
Line(19) = {6, 7};
Line(20) = {7, 1};
Line Loop(1010) = {-15, 19, 20};
Plane Surface(10) = {1010};
Line(21) = {2, 13};
Line(22) = {13, 12};
Line Loop(1011) = {21, 22, -16};
Plane Surface(11) = {1011};
Line(23) = {7, 13};
Line Loop(1012) = {19, 23, 22, -18};
Plane Surface(12) = {1012};
Line(24) = {7, 8};
Line(25) = {8, 1};
Line Loop(1013) = {-20, 24, 25};
Plane Surface(13) = {1013};
Line(26) = {2, 14};
Line(27) = {14, 13};
Line Loop(1014) = {26, 27, -21};
Plane Surface(14) = {1014};
Line(28) = {8, 14};
Line Loop(1015) = {24, 28, 27, -23};
Plane Surface(15) = {1015};
Line(29) = {8, 3};
Line Loop(1016) = {-25, 29, -1};
Plane Surface(16) = {1016};
Line(30) = {9, 14};
Line Loop(1017) = {-6, 30, -26};
Plane Surface(17) = {1017};
Line Loop(1018) = {29, -8, 30, -28};
Plane Surface(18) = {1018};
Surface Loop(1) = {1, 2, 3, 4, 5, 6, 7, 8, 9, 10, 11, 12, 13, 14, 15, 16, 17, 18};
Volume(1) = {1};
Physical Surface("cap_female") = {1, 4, 7, 10, 13, 16};
Physical Surface("cap_male") = {2, 5, 8, 11, 14, 17};
Physical Surface("shaft_1") = {3};
Physical Surface("shaft_2") = {6};
Physical Surface("shaft_3") = {9};
Physical Surface("shaft_4") = {12};
Physical Surface("shaft_5") = {15};
Physical Surface("shaft_6") = {18};
Physical Volume("crystal") = {1};
