0
SECTION
2
ENTITIES
0
LINE
8
FRAME
10
0.0000
20
32.5000
11
116.6986
21
32.5000
0
LINE
8
FRAME
10
0.0000
20
92.5000
11
116.6986
21
92.5000
0
LINE
8
FRAME
10
0.0000
20
32.5000
11
0.0000
21
92.5000
0
LINE
8
FRAME
10
116.6986
20
32.5000
11
116.6986
21
92.5000
0
LINE
8
EYE_PLANE
10
0.0000
20
62.5000
11
116.6986
21
62.5000
0
LINE
8
COPPER_CW
10
0.0000
20
32.5000
11
116.6986
21
33.4900
0
LINE
8
COPPER_CW
10
0.0000
20
33.4900
11
116.6986
21
34.4800
0
LINE
8
COPPER_CW
10
0.0000
20
34.4800
11
116.6986
21
35.4700
0
LINE
8
COPPER_CW
10
0.0000
20
35.4700
11
116.6986
21
36.4600
0
LINE
8
COPPER_CW
10
0.0000
20
36.4600
11
116.6986
21
37.4500
0
LINE
8
COPPER_CW
10
0.0000
20
37.4500
11
116.6986
21
38.4400
0
LINE
8
COPPER_CW
10
0.0000
20
38.4400
11
116.6986
21
39.4300
0
LINE
8
COPPER_CW
10
0.0000
20
39.4300
11
116.6986
21
40.4200
0
LINE
8
COPPER_CW
10
0.0000
20
40.4200
11
116.6986
21
41.4100
0
LINE
8
COPPER_CW
10
0.0000
20
41.4100
11
116.6986
21
42.4000
0
LINE
8
COPPER_CW
10
0.0000
20
42.4000
11
116.6986
21
43.3900
0
LINE
8
COPPER_CW
10
0.0000
20
43.3900
11
116.6986
21
44.3800
0
LINE
8
COPPER_CW
10
0.0000
20
44.3800
11
116.6986
21
45.3700
0
LINE
8
COPPER_CW
10
0.0000
20
45.3700
11
116.6986
21
46.3600
0
LINE
8
COPPER_CW
10
0.0000
20
46.3600
11
116.6986
21
47.3500
0
LINE
8
COPPER_CW
10
0.0000
20
47.3500
11
116.6986
21
48.3400
0
LINE
8
COPPER_CW
10
0.0000
20
48.3400
11
116.6986
21
49.3300
0
LINE
8
COPPER_CW
10
0.0000
20
49.3300
11
116.6986
21
50.3200
0
LINE
8
COPPER_CW
10
0.0000
20
50.3200
11
116.6986
21
51.3100
0
LINE
8
COPPER_CW
10
0.0000
20
51.3100
11
116.6986
21
52.3000
0
LINE
8
COPPER_CW
10
0.0000
20
52.3000
11
116.6986
21
53.2900
0
LINE
8
COPPER_CW
10
0.0000
20
53.2900
11
116.6986
21
54.2800
0
LINE
8
COPPER_CW
10
0.0000
20
54.2800
11
116.6986
21
55.2700
0
LINE
8
COPPER_CW
10
0.0000
20
55.2700
11
116.6986
21
56.2600
0
LINE
8
COPPER_CW
10
0.0000
20
56.2600
11
116.6986
21
57.2500
0
LINE
8
COPPER_CW
10
0.0000
20
57.2500
11
116.6986
21
58.2400
0
LINE
8
COPPER_CW
10
0.0000
20
58.2400
11
116.6986
21
59.2300
0
LINE
8
COPPER_CW
10
0.0000
20
59.2300
11
116.6986
21
60.2200
0
LINE
8
COPPER_CW
10
0.0000
20
60.2200
11
116.6986
21
61.2100
0
LINE
8
COPPER_CW
10
0.0000
20
61.2100
11
116.6986
21
62.2000
0
LINE
8
COPPER_CW
10
0.0000
20
62.2000
11
116.6986
21
63.1900
0
LINE
8
COPPER_CW
10
0.0000
20
63.1900
11
116.6986
21
64.1800
0
LINE
8
COPPER_CW
10
0.0000
20
64.1800
11
116.6986
21
65.1700
0
LINE
8
COPPER_CW
10
0.0000
20
65.1700
11
116.6986
21
66.1600
0
LINE
8
COPPER_CW
10
0.0000
20
66.1600
11
116.6986
21
67.1500
0
LINE
8
COPPER_CW
10
0.0000
20
67.1500
11
116.6986
21
68.1400
0
LINE
8
COPPER_CW
10
0.0000
20
68.1400
11
116.6986
21
69.1300
0
LINE
8
COPPER_CW
10
0.0000
20
69.1300
11
116.6986
21
70.1200
0
LINE
8
COPPER_CW
10
0.0000
20
70.1200
11
116.6986
21
71.1100
0
LINE
8
COPPER_CW
10
0.0000
20
71.1100
11
116.6986
21
72.1000
0
LINE
8
COPPER_CW
10
0.0000
20
72.1000
11
116.6986
21
73.0900
0
LINE
8
COPPER_CW
10
0.0000
20
73.0900
11
116.6986
21
74.0800
0
LINE
8
COPPER_CW
10
0.0000
20
74.0800
11
116.6986
21
75.0700
0
LINE
8
COPPER_CW
10
0.0000
20
75.0700
11
116.6986
21
76.0600
0
LINE
8
COPPER_CW
10
0.0000
20
76.0600
11
116.6986
21
77.0500
0
LINE
8
COPPER_CW
10
0.0000
20
77.0500
11
116.6986
21
78.0400
0
LINE
8
COPPER_CW
10
0.0000
20
78.0400
11
116.6986
21
79.0300
0
LINE
8
COPPER_CW
10
0.0000
20
79.0300
11
116.6986
21
80.0200
0
LINE
8
COPPER_CW
10
0.0000
20
80.0200
11
116.6986
21
81.0100
0
LINE
8
COPPER_CW
10
0.0000
20
81.0100
11
116.6986
21
82.0000
0
LINE
8
COPPER_CW
10
0.0000
20
82.0000
11
116.6986
21
82.9900
0
LINE
8
COPPER_CW
10
0.0000
20
82.9900
11
116.6986
21
83.9800
0
LINE
8
COPPER_CW
10
0.0000
20
83.9800
11
116.6986
21
84.9700
0
LINE
8
COPPER_CW
10
0.0000
20
84.9700
11
116.6986
21
85.9600
0
LINE
8
COPPER_CW
10
0.0000
20
85.9600
11
116.6986
21
86.9500
0
LINE
8
COPPER_CW
10
0.0000
20
86.9500
11
116.6986
21
87.9400
0
LINE
8
COPPER_CW
10
0.0000
20
87.9400
11
116.6986
21
88.9300
0
LINE
8
COPPER_CW
10
0.0000
20
88.9300
11
116.6986
21
89.9200
0
LINE
8
COPPER_CW
10
0.0000
20
89.9200
11
116.6986
21
90.9100
0
LINE
8
COPPER_CW
10
0.0000
20
90.9100
11
116.6986
21
91.9000
0
LINE
8
SILVER_CCW
10
116.6986
20
32.5000
11
0.0000
21
33.4900
0
LINE
8
SILVER_CCW
10
116.6986
20
33.4900
11
0.0000
21
34.4800
0
LINE
8
SILVER_CCW
10
116.6986
20
34.4800
11
0.0000
21
35.4700
0
LINE
8
SILVER_CCW
10
116.6986
20
35.4700
11
0.0000
21
36.4600
0
LINE
8
SILVER_CCW
10
116.6986
20
36.4600
11
0.0000
21
37.4500
0
LINE
8
SILVER_CCW
10
116.6986
20
37.4500
11
0.0000
21
38.4400
0
LINE
8
SILVER_CCW
10
116.6986
20
38.4400
11
0.0000
21
39.4300
0
LINE
8
SILVER_CCW
10
116.6986
20
39.4300
11
0.0000
21
40.4200
0
LINE
8
SILVER_CCW
10
116.6986
20
40.4200
11
0.0000
21
41.4100
0
LINE
8
SILVER_CCW
10
116.6986
20
41.4100
11
0.0000
21
42.4000
0
LINE
8
SILVER_CCW
10
116.6986
20
42.4000
11
0.0000
21
43.3900
0
LINE
8
SILVER_CCW
10
116.6986
20
43.3900
11
0.0000
21
44.3800
0
LINE
8
SILVER_CCW
10
116.6986
20
44.3800
11
0.0000
21
45.3700
0
LINE
8
SILVER_CCW
10
116.6986
20
45.3700
11
0.0000
21
46.3600
0
LINE
8
SILVER_CCW
10
116.6986
20
46.3600
11
0.0000
21
47.3500
0
LINE
8
SILVER_CCW
10
116.6986
20
47.3500
11
0.0000
21
48.3400
0
LINE
8
SILVER_CCW
10
116.6986
20
48.3400
11
0.0000
21
49.3300
0
LINE
8
SILVER_CCW
10
116.6986
20
49.3300
11
0.0000
21
50.3200
0
LINE
8
SILVER_CCW
10
116.6986
20
50.3200
11
0.0000
21
51.3100
0
LINE
8
SILVER_CCW
10
116.6986
20
51.3100
11
0.0000
21
52.3000
0
LINE
8
SILVER_CCW
10
116.6986
20
52.3000
11
0.0000
21
53.2900
0
LINE
8
SILVER_CCW
10
116.6986
20
53.2900
11
0.0000
21
54.2800
0
LINE
8
SILVER_CCW
10
116.6986
20
54.2800
11
0.0000
21
55.2700
0
LINE
8
SILVER_CCW
10
116.6986
20
55.2700
11
0.0000
21
56.2600
0
LINE
8
SILVER_CCW
10
116.6986
20
56.2600
11
0.0000
21
57.2500
0
LINE
8
SILVER_CCW
10
116.6986
20
57.2500
11
0.0000
21
58.2400
0
LINE
8
SILVER_CCW
10
116.6986
20
58.2400
11
0.0000
21
59.2300
0
LINE
8
SILVER_CCW
10
116.6986
20
59.2300
11
0.0000
21
60.2200
0
LINE
8
SILVER_CCW
10
116.6986
20
60.2200
11
0.0000
21
61.2100
0
LINE
8
SILVER_CCW
10
116.6986
20
61.2100
11
0.0000
21
62.2000
0
LINE
8
SILVER_CCW
10
116.6986
20
62.2000
11
0.0000
21
63.1900
0
LINE
8
SILVER_CCW
10
116.6986
20
63.1900
11
0.0000
21
64.1800
0
LINE
8
SILVER_CCW
10
116.6986
20
64.1800
11
0.0000
21
65.1700
0
LINE
8
SILVER_CCW
10
116.6986
20
65.1700
11
0.0000
21
66.1600
0
LINE
8
SILVER_CCW
10
116.6986
20
66.1600
11
0.0000
21
67.1500
0
LINE
8
SILVER_CCW
10
116.6986
20
67.1500
11
0.0000
21
68.1400
0
LINE
8
SILVER_CCW
10
116.6986
20
68.1400
11
0.0000
21
69.1300
0
LINE
8
SILVER_CCW
10
116.6986
20
69.1300
11
0.0000
21
70.1200
0
LINE
8
SILVER_CCW
10
116.6986
20
70.1200
11
0.0000
21
71.1100
0
LINE
8
SILVER_CCW
10
116.6986
20
71.1100
11
0.0000
21
72.1000
0
LINE
8
SILVER_CCW
10
116.6986
20
72.1000
11
0.0000
21
73.0900
0
LINE
8
SILVER_CCW
10
116.6986
20
73.0900
11
0.0000
21
74.0800
0
LINE
8
SILVER_CCW
10
116.6986
20
74.0800
11
0.0000
21
75.0700
0
LINE
8
SILVER_CCW
10
116.6986
20
75.0700
11
0.0000
21
76.0600
0
LINE
8
SILVER_CCW
10
116.6986
20
76.0600
11
0.0000
21
77.0500
0
LINE
8
SILVER_CCW
10
116.6986
20
77.0500
11
0.0000
21
78.0400
0
LINE
8
SILVER_CCW
10
116.6986
20
78.0400
11
0.0000
21
79.0300
0
LINE
8
SILVER_CCW
10
116.6986
20
79.0300
11
0.0000
21
80.0200
0
LINE
8
SILVER_CCW
10
116.6986
20
80.0200
11
0.0000
21
81.0100
0
LINE
8
SILVER_CCW
10
116.6986
20
81.0100
11
0.0000
21
82.0000
0
LINE
8
SILVER_CCW
10
116.6986
20
82.0000
11
0.0000
21
82.9900
0
LINE
8
SILVER_CCW
10
116.6986
20
82.9900
11
0.0000
21
83.9800
0
LINE
8
SILVER_CCW
10
116.6986
20
83.9800
11
0.0000
21
84.9700
0
LINE
8
SILVER_CCW
10
116.6986
20
84.9700
11
0.0000
21
85.9600
0
LINE
8
SILVER_CCW
10
116.6986
20
85.9600
11
0.0000
21
86.9500
0
LINE
8
SILVER_CCW
10
116.6986
20
86.9500
11
0.0000
21
87.9400
0
LINE
8
SILVER_CCW
10
116.6986
20
87.9400
11
0.0000
21
88.9300
0
LINE
8
SILVER_CCW
10
116.6986
20
88.9300
11
0.0000
21
89.9200
0
LINE
8
SILVER_CCW
10
116.6986
20
89.9200
11
0.0000
21
90.9100
0
LINE
8
SILVER_CCW
10
116.6986
20
90.9100
11
0.0000
21
91.9000
0
ENDSEC
0
EOF
