0
SECTION
2
ENTITIES
0
LINE
8
FRAME
10
0.0000
20
32.5000
11
116.6986
21
32.5000
0
LINE
8
FRAME
10
0.0000
20
92.5000
11
116.6986
21
92.5000
0
LINE
8
FRAME
10
0.0000
20
32.5000
11
0.0000
21
92.5000
0
LINE
8
FRAME
10
116.6986
20
32.5000
11
116.6986
21
92.5000
0
LINE
8
EYE_PLANE
10
0.0000
20
62.5000
11
116.6986
21
62.5000
0
LINE
8
COPPER_CW
10
115.6074
20
32.5000
11
116.6986
21
33.5912
0
LINE
8
COPPER_CW
10
114.2074
20
32.5000
11
116.6986
21
34.9912
0
LINE
8
COPPER_CW
10
112.8073
20
32.5000
11
116.6986
21
36.3913
0
LINE
8
COPPER_CW
10
111.4072
20
32.5000
11
116.6986
21
37.7914
0
LINE
8
COPPER_CW
10
110.0071
20
32.5000
11
116.6986
21
39.1915
0
LINE
8
COPPER_CW
10
108.6071
20
32.5000
11
116.6986
21
40.5915
0
LINE
8
COPPER_CW
10
107.2070
20
32.5000
11
116.6986
21
41.9916
0
LINE
8
COPPER_CW
10
105.8069
20
32.5000
11
116.6986
21
43.3917
0
LINE
8
COPPER_CW
10
104.4069
20
32.5000
11
116.6986
21
44.7917
0
LINE
8
COPPER_CW
10
103.0068
20
32.5000
11
116.6986
21
46.1918
0
LINE
8
COPPER_CW
10
101.6067
20
32.5000
11
116.6986
21
47.5919
0
LINE
8
COPPER_CW
10
100.2066
20
32.5000
11
116.6986
21
48.9920
0
LINE
8
COPPER_CW
10
98.8066
20
32.5000
11
116.6986
21
50.3920
0
LINE
8
COPPER_CW
10
97.4065
20
32.5000
11
116.6986
21
51.7921
0
LINE
8
COPPER_CW
10
96.0064
20
32.5000
11
116.6986
21
53.1922
0
LINE
8
COPPER_CW
10
94.6064
20
32.5000
11
116.6986
21
54.5922
0
LINE
8
COPPER_CW
10
93.2063
20
32.5000
11
116.6986
21
55.9923
0
LINE
8
COPPER_CW
10
91.8062
20
32.5000
11
116.6986
21
57.3924
0
LINE
8
COPPER_CW
10
90.4061
20
32.5000
11
116.6986
21
58.7925
0
LINE
8
COPPER_CW
10
89.0061
20
32.5000
11
116.6986
21
60.1925
0
LINE
8
COPPER_CW
10
87.6060
20
32.5000
11
116.6986
21
61.5926
0
LINE
8
COPPER_CW
10
86.2059
20
32.5000
11
116.6986
21
62.9927
0
LINE
8
COPPER_CW
10
84.8059
20
32.5000
11
116.6986
21
64.3927
0
LINE
8
COPPER_CW
10
83.4058
20
32.5000
11
116.6986
21
65.7928
0
LINE
8
COPPER_CW
10
82.0057
20
32.5000
11
116.6986
21
67.1929
0
LINE
8
COPPER_CW
10
80.6056
20
32.5000
11
116.6986
21
68.5930
0
LINE
8
COPPER_CW
10
79.2056
20
32.5000
11
116.6986
21
69.9930
0
LINE
8
COPPER_CW
10
77.8055
20
32.5000
11
116.6986
21
71.3931
0
LINE
8
COPPER_CW
10
76.4054
20
32.5000
11
116.6986
21
72.7932
0
LINE
8
COPPER_CW
10
75.0054
20
32.5000
11
116.6986
21
74.1932
0
LINE
8
COPPER_CW
10
73.6053
20
32.5000
11
116.6986
21
75.5933
0
LINE
8
COPPER_CW
10
72.2052
20
32.5000
11
116.6986
21
76.9934
0
LINE
8
COPPER_CW
10
70.8051
20
32.5000
11
116.6986
21
78.3935
0
LINE
8
COPPER_CW
10
69.4051
20
32.5000
11
116.6986
21
79.7935
0
LINE
8
COPPER_CW
10
68.0050
20
32.5000
11
116.6986
21
81.1936
0
LINE
8
COPPER_CW
10
66.6049
20
32.5000
11
116.6986
21
82.5937
0
LINE
8
COPPER_CW
10
65.2049
20
32.5000
11
116.6986
21
83.9937
0
LINE
8
COPPER_CW
10
63.8048
20
32.5000
11
116.6986
21
85.3938
0
LINE
8
COPPER_CW
10
62.4047
20
32.5000
11
116.6986
21
86.7939
0
LINE
8
COPPER_CW
10
61.0046
20
32.5000
11
116.6986
21
88.1940
0
LINE
8
COPPER_CW
10
59.6046
20
32.5000
11
116.6986
21
89.5940
0
LINE
8
COPPER_CW
10
58.2045
20
32.5000
11
116.6986
21
90.9941
0
LINE
8
COPPER_CW
10
56.8044
20
32.5000
11
116.6986
21
92.3942
0
LINE
8
COPPER_CW
10
55.4044
20
32.5000
11
115.4044
21
92.5000
0
LINE
8
COPPER_CW
10
54.0043
20
32.5000
11
114.0043
21
92.5000
0
LINE
8
COPPER_CW
10
52.6042
20
32.5000
11
112.6042
21
92.5000
0
LINE
8
COPPER_CW
10
51.2041
20
32.5000
11
111.2041
21
92.5000
0
LINE
8
COPPER_CW
10
49.8041
20
32.5000
11
109.8041
21
92.5000
0
LINE
8
COPPER_CW
10
48.4040
20
32.5000
11
108.4040
21
92.5000
0
LINE
8
COPPER_CW
10
47.0039
20
32.5000
11
107.0039
21
92.5000
0
LINE
8
COPPER_CW
10
45.6039
20
32.5000
11
105.6039
21
92.5000
0
LINE
8
COPPER_CW
10
44.2038
20
32.5000
11
104.2038
21
92.5000
0
LINE
8
COPPER_CW
10
42.8037
20
32.5000
11
102.8037
21
92.5000
0
LINE
8
COPPER_CW
10
41.4036
20
32.5000
11
101.4036
21
92.5000
0
LINE
8
COPPER_CW
10
40.0036
20
32.5000
11
100.0036
21
92.5000
0
LINE
8
COPPER_CW
10
38.6035
20
32.5000
11
98.6035
21
92.5000
0
LINE
8
COPPER_CW
10
37.2034
20
32.5000
11
97.2034
21
92.5000
0
LINE
8
COPPER_CW
10
35.8034
20
32.5000
11
95.8034
21
92.5000
0
LINE
8
COPPER_CW
10
34.4033
20
32.5000
11
94.4033
21
92.5000
0
LINE
8
COPPER_CW
10
33.0032
20
32.5000
11
93.0032
21
92.5000
0
LINE
8
COPPER_CW
10
31.6031
20
32.5000
11
91.6031
21
92.5000
0
LINE
8
COPPER_CW
10
30.2031
20
32.5000
11
90.2031
21
92.5000
0
LINE
8
COPPER_CW
10
28.8030
20
32.5000
11
88.8030
21
92.5000
0
LINE
8
COPPER_CW
10
27.4029
20
32.5000
11
87.4029
21
92.5000
0
LINE
8
COPPER_CW
10
26.0029
20
32.5000
11
86.0029
21
92.5000
0
LINE
8
COPPER_CW
10
24.6028
20
32.5000
11
84.6028
21
92.5000
0
LINE
8
COPPER_CW
10
23.2027
20
32.5000
11
83.2027
21
92.5000
0
LINE
8
COPPER_CW
10
21.8026
20
32.5000
11
81.8026
21
92.5000
0
LINE
8
COPPER_CW
10
20.4026
20
32.5000
11
80.4026
21
92.5000
0
LINE
8
COPPER_CW
10
19.0025
20
32.5000
11
79.0025
21
92.5000
0
LINE
8
COPPER_CW
10
17.6024
20
32.5000
11
77.6024
21
92.5000
0
LINE
8
COPPER_CW
10
16.2024
20
32.5000
11
76.2024
21
92.5000
0
LINE
8
COPPER_CW
10
14.8023
20
32.5000
11
74.8023
21
92.5000
0
LINE
8
COPPER_CW
10
13.4022
20
32.5000
11
73.4022
21
92.5000
0
LINE
8
COPPER_CW
10
12.0021
20
32.5000
11
72.0021
21
92.5000
0
LINE
8
COPPER_CW
10
10.6021
20
32.5000
11
70.6021
21
92.5000
0
LINE
8
COPPER_CW
10
9.2020
20
32.5000
11
69.2020
21
92.5000
0
LINE
8
COPPER_CW
10
7.8019
20
32.5000
11
67.8019
21
92.5000
0
LINE
8
COPPER_CW
10
6.4019
20
32.5000
11
66.4019
21
92.5000
0
LINE
8
COPPER_CW
10
5.0018
20
32.5000
11
65.0018
21
92.5000
0
LINE
8
COPPER_CW
10
3.6017
20
32.5000
11
63.6017
21
92.5000
0
LINE
8
COPPER_CW
10
2.2016
20
32.5000
11
62.2016
21
92.5000
0
LINE
8
COPPER_CW
10
0.8016
20
32.5000
11
60.8016
21
92.5000
0
LINE
8
COPPER_CW
10
0.0000
20
33.0985
11
59.4015
21
92.5000
0
LINE
8
COPPER_CW
10
0.0000
20
34.4986
11
58.0014
21
92.5000
0
LINE
8
COPPER_CW
10
0.0000
20
35.8986
11
56.6014
21
92.5000
0
LINE
8
COPPER_CW
10
0.0000
20
37.2987
11
55.2013
21
92.5000
0
LINE
8
COPPER_CW
10
0.0000
20
38.6988
11
53.8012
21
92.5000
0
LINE
8
COPPER_CW
10
0.0000
20
40.0989
11
52.4011
21
92.5000
0
LINE
8
COPPER_CW
10
0.0000
20
41.4989
11
51.0011
21
92.5000
0
LINE
8
COPPER_CW
10
0.0000
20
42.8990
11
49.6010
21
92.5000
0
LINE
8
COPPER_CW
10
0.0000
20
44.2991
11
48.2009
21
92.5000
0
LINE
8
COPPER_CW
10
0.0000
20
45.6991
11
46.8009
21
92.5000
0
LINE
8
COPPER_CW
10
0.0000
20
47.0992
11
45.4008
21
92.5000
0
LINE
8
COPPER_CW
10
0.0000
20
48.4993
11
44.0007
21
92.5000
0
LINE
8
COPPER_CW
10
0.0000
20
49.8994
11
42.6006
21
92.5000
0
LINE
8
COPPER_CW
10
0.0000
20
51.2994
11
41.2006
21
92.5000
0
LINE
8
COPPER_CW
10
0.0000
20
52.6995
11
39.8005
21
92.5000
0
LINE
8
COPPER_CW
10
0.0000
20
54.0996
11
38.4004
21
92.5000
0
LINE
8
COPPER_CW
10
0.0000
20
55.4996
11
37.0004
21
92.5000
0
LINE
8
COPPER_CW
10
0.0000
20
56.8997
11
35.6003
21
92.5000
0
LINE
8
COPPER_CW
10
0.0000
20
58.2998
11
34.2002
21
92.5000
0
LINE
8
COPPER_CW
10
0.0000
20
59.6999
11
32.8001
21
92.5000
0
LINE
8
COPPER_CW
10
0.0000
20
61.0999
11
31.4001
21
92.5000
0
LINE
8
COPPER_CW
10
0.0000
20
62.5000
11
30.0000
21
92.5000
0
LINE
8
COPPER_CW
10
0.0000
20
63.9001
11
28.5999
21
92.5000
0
LINE
8
COPPER_CW
10
0.0000
20
65.3001
11
27.1999
21
92.5000
0
LINE
8
COPPER_CW
10
0.0000
20
66.7002
11
25.7998
21
92.5000
0
LINE
8
COPPER_CW
10
0.0000
20
68.1003
11
24.3997
21
92.5000
0
LINE
8
COPPER_CW
10
0.0000
20
69.5004
11
22.9996
21
92.5000
0
LINE
8
COPPER_CW
10
0.0000
20
70.9004
11
21.5996
21
92.5000
0
LINE
8
COPPER_CW
10
0.0000
20
72.3005
11
20.1995
21
92.5000
0
LINE
8
COPPER_CW
10
0.0000
20
73.7006
11
18.7994
21
92.5000
0
LINE
8
COPPER_CW
10
0.0000
20
75.1006
11
17.3994
21
92.5000
0
LINE
8
COPPER_CW
10
0.0000
20
76.5007
11
15.9993
21
92.5000
0
LINE
8
COPPER_CW
10
0.0000
20
77.9008
11
14.5992
21
92.5000
0
LINE
8
COPPER_CW
10
0.0000
20
79.3009
11
13.1991
21
92.5000
0
LINE
8
COPPER_CW
10
0.0000
20
80.7009
11
11.7991
21
92.5000
0
LINE
8
COPPER_CW
10
0.0000
20
82.1010
11
10.3990
21
92.5000
0
LINE
8
COPPER_CW
10
0.0000
20
83.5011
11
8.9989
21
92.5000
0
LINE
8
COPPER_CW
10
0.0000
20
84.9011
11
7.5989
21
92.5000
0
LINE
8
COPPER_CW
10
0.0000
20
86.3012
11
6.1988
21
92.5000
0
LINE
8
COPPER_CW
10
0.0000
20
87.7013
11
4.7987
21
92.5000
0
LINE
8
COPPER_CW
10
0.0000
20
89.1014
11
3.3986
21
92.5000
0
LINE
8
COPPER_CW
10
0.0000
20
90.5014
11
1.9986
21
92.5000
0
LINE
8
COPPER_CW
10
0.0000
20
91.9015
11
0.5985
21
92.5000
0
LINE
8
SILVER_CCW
10
0.0000
20
33.0985
11
0.5985
21
32.5000
0
LINE
8
SILVER_CCW
10
0.0000
20
34.4986
11
1.9986
21
32.5000
0
LINE
8
SILVER_CCW
10
0.0000
20
35.8986
11
3.3986
21
32.5000
0
LINE
8
SILVER_CCW
10
0.0000
20
37.2987
11
4.7987
21
32.5000
0
LINE
8
SILVER_CCW
10
0.0000
20
38.6988
11
6.1988
21
32.5000
0
LINE
8
SILVER_CCW
10
0.0000
20
40.0989
11
7.5989
21
32.5000
0
LINE
8
SILVER_CCW
10
0.0000
20
41.4989
11
8.9989
21
32.5000
0
LINE
8
SILVER_CCW
10
0.0000
20
42.8990
11
10.3990
21
32.5000
0
LINE
8
SILVER_CCW
10
0.0000
20
44.2991
11
11.7991
21
32.5000
0
LINE
8
SILVER_CCW
10
0.0000
20
45.6991
11
13.1991
21
32.5000
0
LINE
8
SILVER_CCW
10
0.0000
20
47.0992
11
14.5992
21
32.5000
0
LINE
8
SILVER_CCW
10
0.0000
20
48.4993
11
15.9993
21
32.5000
0
LINE
8
SILVER_CCW
10
0.0000
20
49.8994
11
17.3994
21
32.5000
0
LINE
8
SILVER_CCW
10
0.0000
20
51.2994
11
18.7994
21
32.5000
0
LINE
8
SILVER_CCW
10
0.0000
20
52.6995
11
20.1995
21
32.5000
0
LINE
8
SILVER_CCW
10
0.0000
20
54.0996
11
21.5996
21
32.5000
0
LINE
8
SILVER_CCW
10
0.0000
20
55.4996
11
22.9996
21
32.5000
0
LINE
8
SILVER_CCW
10
0.0000
20
56.8997
11
24.3997
21
32.5000
0
LINE
8
SILVER_CCW
10
0.0000
20
58.2998
11
25.7998
21
32.5000
0
LINE
8
SILVER_CCW
10
0.0000
20
59.6999
11
27.1999
21
32.5000
0
LINE
8
SILVER_CCW
10
0.0000
20
61.0999
11
28.5999
21
32.5000
0
LINE
8
SILVER_CCW
10
0.0000
20
62.5000
11
30.0000
21
32.5000
0
LINE
8
SILVER_CCW
10
0.0000
20
63.9001
11
31.4001
21
32.5000
0
LINE
8
SILVER_CCW
10
0.0000
20
65.3001
11
32.8001
21
32.5000
0
LINE
8
SILVER_CCW
10
0.0000
20
66.7002
11
34.2002
21
32.5000
0
LINE
8
SILVER_CCW
10
0.0000
20
68.1003
11
35.6003
21
32.5000
0
LINE
8
SILVER_CCW
10
0.0000
20
69.5004
11
37.0004
21
32.5000
0
LINE
8
SILVER_CCW
10
0.0000
20
70.9004
11
38.4004
21
32.5000
0
LINE
8
SILVER_CCW
10
0.0000
20
72.3005
11
39.8005
21
32.5000
0
LINE
8
SILVER_CCW
10
0.0000
20
73.7006
11
41.2006
21
32.5000
0
LINE
8
SILVER_CCW
10
0.0000
20
75.1006
11
42.6006
21
32.5000
0
LINE
8
SILVER_CCW
10
0.0000
20
76.5007
11
44.0007
21
32.5000
0
LINE
8
SILVER_CCW
10
0.0000
20
77.9008
11
45.4008
21
32.5000
0
LINE
8
SILVER_CCW
10
0.0000
20
79.3009
11
46.8009
21
32.5000
0
LINE
8
SILVER_CCW
10
0.0000
20
80.7009
11
48.2009
21
32.5000
0
LINE
8
SILVER_CCW
10
0.0000
20
82.1010
11
49.6010
21
32.5000
0
LINE
8
SILVER_CCW
10
0.0000
20
83.5011
11
51.0011
21
32.5000
0
LINE
8
SILVER_CCW
10
0.0000
20
84.9011
11
52.4011
21
32.5000
0
LINE
8
SILVER_CCW
10
0.0000
20
86.3012
11
53.8012
21
32.5000
0
LINE
8
SILVER_CCW
10
0.0000
20
87.7013
11
55.2013
21
32.5000
0
LINE
8
SILVER_CCW
10
0.0000
20
89.1014
11
56.6014
21
32.5000
0
LINE
8
SILVER_CCW
10
0.0000
20
90.5014
11
58.0014
21
32.5000
0
LINE
8
SILVER_CCW
10
0.0000
20
91.9015
11
59.4015
21
32.5000
0
LINE
8
SILVER_CCW
10
0.8016
20
92.5000
11
60.8016
21
32.5000
0
LINE
8
SILVER_CCW
10
2.2016
20
92.5000
11
62.2016
21
32.5000
0
LINE
8
SILVER_CCW
10
3.6017
20
92.5000
11
63.6017
21
32.5000
0
LINE
8
SILVER_CCW
10
5.0018
20
92.5000
11
65.0018
21
32.5000
0
LINE
8
SILVER_CCW
10
6.4019
20
92.5000
11
66.4019
21
32.5000
0
LINE
8
SILVER_CCW
10
7.8019
20
92.5000
11
67.8019
21
32.5000
0
LINE
8
SILVER_CCW
10
9.2020
20
92.5000
11
69.2020
21
32.5000
0
LINE
8
SILVER_CCW
10
10.6021
20
92.5000
11
70.6021
21
32.5000
0
LINE
8
SILVER_CCW
10
12.0021
20
92.5000
11
72.0021
21
32.5000
0
LINE
8
SILVER_CCW
10
13.4022
20
92.5000
11
73.4022
21
32.5000
0
LINE
8
SILVER_CCW
10
14.8023
20
92.5000
11
74.8023
21
32.5000
0
LINE
8
SILVER_CCW
10
16.2024
20
92.5000
11
76.2024
21
32.5000
0
LINE
8
SILVER_CCW
10
17.6024
20
92.5000
11
77.6024
21
32.5000
0
LINE
8
SILVER_CCW
10
19.0025
20
92.5000
11
79.0025
21
32.5000
0
LINE
8
SILVER_CCW
10
20.4026
20
92.5000
11
80.4026
21
32.5000
0
LINE
8
SILVER_CCW
10
21.8026
20
92.5000
11
81.8026
21
32.5000
0
LINE
8
SILVER_CCW
10
23.2027
20
92.5000
11
83.2027
21
32.5000
0
LINE
8
SILVER_CCW
10
24.6028
20
92.5000
11
84.6028
21
32.5000
0
LINE
8
SILVER_CCW
10
26.0029
20
92.5000
11
86.0029
21
32.5000
0
LINE
8
SILVER_CCW
10
27.4029
20
92.5000
11
87.4029
21
32.5000
0
LINE
8
SILVER_CCW
10
28.8030
20
92.5000
11
88.8030
21
32.5000
0
LINE
8
SILVER_CCW
10
30.2031
20
92.5000
11
90.2031
21
32.5000
0
LINE
8
SILVER_CCW
10
31.6031
20
92.5000
11
91.6031
21
32.5000
0
LINE
8
SILVER_CCW
10
33.0032
20
92.5000
11
93.0032
21
32.5000
0
LINE
8
SILVER_CCW
10
34.4033
20
92.5000
11
94.4033
21
32.5000
0
LINE
8
SILVER_CCW
10
35.8034
20
92.5000
11
95.8034
21
32.5000
0
LINE
8
SILVER_CCW
10
37.2034
20
92.5000
11
97.2034
21
32.5000
0
LINE
8
SILVER_CCW
10
38.6035
20
92.5000
11
98.6035
21
32.5000
0
LINE
8
SILVER_CCW
10
40.0036
20
92.5000
11
100.0036
21
32.5000
0
LINE
8
SILVER_CCW
10
41.4036
20
92.5000
11
101.4036
21
32.5000
0
LINE
8
SILVER_CCW
10
42.8037
20
92.5000
11
102.8037
21
32.5000
0
LINE
8
SILVER_CCW
10
44.2038
20
92.5000
11
104.2038
21
32.5000
0
LINE
8
SILVER_CCW
10
45.6039
20
92.5000
11
105.6039
21
32.5000
0
LINE
8
SILVER_CCW
10
47.0039
20
92.5000
11
107.0039
21
32.5000
0
LINE
8
SILVER_CCW
10
48.4040
20
92.5000
11
108.4040
21
32.5000
0
LINE
8
SILVER_CCW
10
49.8041
20
92.5000
11
109.8041
21
32.5000
0
LINE
8
SILVER_CCW
10
51.2041
20
92.5000
11
111.2041
21
32.5000
0
LINE
8
SILVER_CCW
10
52.6042
20
92.5000
11
112.6042
21
32.5000
0
LINE
8
SILVER_CCW
10
54.0043
20
92.5000
11
114.0043
21
32.5000
0
LINE
8
SILVER_CCW
10
55.4044
20
92.5000
11
115.4044
21
32.5000
0
LINE
8
SILVER_CCW
10
56.8044
20
92.5000
11
116.6986
21
32.6058
0
LINE
8
SILVER_CCW
10
58.2045
20
92.5000
11
116.6986
21
34.0059
0
LINE
8
SILVER_CCW
10
59.6046
20
92.5000
11
116.6986
21
35.4060
0
LINE
8
SILVER_CCW
10
61.0046
20
92.5000
11
116.6986
21
36.8060
0
LINE
8
SILVER_CCW
10
62.4047
20
92.5000
11
116.6986
21
38.2061
0
LINE
8
SILVER_CCW
10
63.8048
20
92.5000
11
116.6986
21
39.6062
0
LINE
8
SILVER_CCW
10
65.2049
20
92.5000
11
116.6986
21
41.0063
0
LINE
8
SILVER_CCW
10
66.6049
20
92.5000
11
116.6986
21
42.4063
0
LINE
8
SILVER_CCW
10
68.0050
20
92.5000
11
116.6986
21
43.8064
0
LINE
8
SILVER_CCW
10
69.4051
20
92.5000
11
116.6986
21
45.2065
0
LINE
8
SILVER_CCW
10
70.8051
20
92.5000
11
116.6986
21
46.6065
0
LINE
8
SILVER_CCW
10
72.2052
20
92.5000
11
116.6986
21
48.0066
0
LINE
8
SILVER_CCW
10
73.6053
20
92.5000
11
116.6986
21
49.4067
0
LINE
8
SILVER_CCW
10
75.0054
20
92.5000
11
116.6986
21
50.8068
0
LINE
8
SILVER_CCW
10
76.4054
20
92.5000
11
116.6986
21
52.2068
0
LINE
8
SILVER_CCW
10
77.8055
20
92.5000
11
116.6986
21
53.6069
0
LINE
8
SILVER_CCW
10
79.2056
20
92.5000
11
116.6986
21
55.0070
0
LINE
8
SILVER_CCW
10
80.6056
20
92.5000
11
116.6986
21
56.4070
0
LINE
8
SILVER_CCW
10
82.0057
20
92.5000
11
116.6986
21
57.8071
0
LINE
8
SILVER_CCW
10
83.4058
20
92.5000
11
116.6986
21
59.2072
0
LINE
8
SILVER_CCW
10
84.8059
20
92.5000
11
116.6986
21
60.6073
0
LINE
8
SILVER_CCW
10
86.2059
20
92.5000
11
116.6986
21
62.0073
0
LINE
8
SILVER_CCW
10
87.6060
20
92.5000
11
116.6986
21
63.4074
0
LINE
8
SILVER_CCW
10
89.0061
20
92.5000
11
116.6986
21
64.8075
0
LINE
8
SILVER_CCW
10
90.4061
20
92.5000
11
116.6986
21
66.2075
0
LINE
8
SILVER_CCW
10
91.8062
20
92.5000
11
116.6986
21
67.6076
0
LINE
8
SILVER_CCW
10
93.2063
20
92.5000
11
116.6986
21
69.0077
0
LINE
8
SILVER_CCW
10
94.6064
20
92.5000
11
116.6986
21
70.4078
0
LINE
8
SILVER_CCW
10
96.0064
20
92.5000
11
116.6986
21
71.8078
0
LINE
8
SILVER_CCW
10
97.4065
20
92.5000
11
116.6986
21
73.2079
0
LINE
8
SILVER_CCW
10
98.8066
20
92.5000
11
116.6986
21
74.6080
0
LINE
8
SILVER_CCW
10
100.2066
20
92.5000
11
116.6986
21
76.0080
0
LINE
8
SILVER_CCW
10
101.6067
20
92.5000
11
116.6986
21
77.4081
0
LINE
8
SILVER_CCW
10
103.0068
20
92.5000
11
116.6986
21
78.8082
0
LINE
8
SILVER_CCW
10
104.4069
20
92.5000
11
116.6986
21
80.2083
0
LINE
8
SILVER_CCW
10
105.8069
20
92.5000
11
116.6986
21
81.6083
0
LINE
8
SILVER_CCW
10
107.2070
20
92.5000
11
116.6986
21
83.0084
0
LINE
8
SILVER_CCW
10
108.6071
20
92.5000
11
116.6986
21
84.4085
0
LINE
8
SILVER_CCW
10
110.0071
20
92.5000
11
116.6986
21
85.8085
0
LINE
8
SILVER_CCW
10
111.4072
20
92.5000
11
116.6986
21
87.2086
0
LINE
8
SILVER_CCW
10
112.8073
20
92.5000
11
116.6986
21
88.6087
0
LINE
8
SILVER_CCW
10
114.2074
20
92.5000
11
116.6986
21
90.0088
0
LINE
8
SILVER_CCW
10
115.6074
20
92.5000
11
116.6986
21
91.4088
0
ENDSEC
0
EOF
